<svg data-v-0dd9719b="" version="1.0" xmlns="http://www.w3.org/2000/svg" xmlns:xlink="http://www.w3.org/1999/xlink" width="100%" height="100%" viewBox="0 0 340.000000 250.000000" preserveAspectRatio="xMidYMid meet" color-interpolation-filters="sRGB" style="margin: auto;"> <rect data-v-0dd9719b="" x="0" y="0" width="100%" height="100%" fill="#fff" fill-opacity="1" class="background"></rect> <rect data-v-0dd9719b="" x="0" y="0" width="100%" height="100%" fill="url(#watermark)" fill-opacity="1" class="watermarklayer"></rect> <g data-v-0dd9719b="" fill="#333" class="icon-text-wrapper icon-svg-group iconsvg" transform="translate(48.279998779296875,96.80374908447266)"><g class="iconsvg-imagesvg" transform="translate(0,7.206804275512695)"><g><rect fill="#333" fill-opacity="0" stroke-width="2" x="0" y="0" width="60" height="41.97888462103562" class="image-rect"></rect> <svg x="0" y="0" width="60" height="41.97888462103562" filtersec="colorsb467949855" class="image-svg-svg primary" style="overflow: visible;"><svg xmlns="http://www.w3.org/2000/svg" viewBox="0 -0.011800243519246578 108.31999969482422 75.78597259521484"><title>资源 5</title><g fill-rule="evenodd"><path d="M0 37.89c26.91 46.83 83.19-19.87 108.3 0-4.79-5-10.72-6.59-17.48-6.2-20.24 1.19-47.89 19.78-74.55 13.57A46.47 46.47 0 0 1 0 37.89" fill="#018ede"></path><path d="M12.09 55.52a41 41 0 0 0 13.66 8.23 37.89 37.89 0 0 0 65.57-25.1c5.91-2.49 11.54-3.25 17-.76-5.18-3-10.86-2.77-17-.84-19.17 6.05-42.73 28.85-69 22.47a42.34 42.34 0 0 1-10.24-4" fill="#3459a4"></path><path d="M22.37 37.89a31.08 31.08 0 0 1 61.44-6.63 51 51 0 0 1 6.76-1h.25c6.76-.4 12.69 1.14 17.48 6.19-3.77-5.85-9.31-8.47-16-9.34-.85-.11-1.71-.19-2.58-.25a37.9 37.9 0 0 0-74.16 11c0 .84 0 1.68.08 2.5A46.3 46.3 0 0 1 0 36.47a46.16 46.16 0 0 0 16 7.31l.26.06a46.67 46.67 0 0 0 6.9 1.08 30.73 30.73 0 0 1-.8-7" fill="#fab848"></path><path d="M0 37.89c31.88 38 84.13-22.23 108.3 0-4.79-5-10.72-6.59-17.48-6.2-20.24 1.19-47.89 19.78-74.55 13.57A46.47 46.47 0 0 1 0 37.89" fill="#02a0fc"></path><path d="M25.75 63.75c30.56 9.25 46.12-16.5 65.57-25.1 5.91-2.49 11.54-3.25 17-.76-5.18-3-10.86-2.77-17-.84-19.17 6.05-42.73 28.85-69 22.47a42.34 42.34 0 0 1-10.24-4 41 41 0 0 0 13.66 8.23" fill="#018ede"></path><path d="M18.85 37.89a34.59 34.59 0 0 1 68.42-7.24c1.12-.17 2.22-.28 3.3-.36h.25c6.76-.4 12.69 1.14 17.48 6.19-3.77-5.85-9.31-8.47-16-9.34-.85-.11-1.71-.19-2.59-.25a37.89 37.89 0 0 0-74.15 11c0 .84 0 1.68.08 2.5A46.3 46.3 0 0 1 0 36.47a46.16 46.16 0 0 0 16 7.31l.26.06q1.61.38 3.21.63a34.79 34.79 0 0 1-.63-6.58" fill="#ffd633"></path></g></svg></svg> <!----></g></g> <g transform="translate(67,0)"><g data-gra="path-name" fill-rule="" class="tp-name iconsvg-namesvg" transform="translate(0,0)"><g transform="scale(1)"><g><path d="M3.38-24.39L20.61-24.39 20.61-26.76 9.67-26.76Q6.37-26.76 6.37-29.97L6.37-29.97 6.37-31.77Q6.42-34.89 9.67-34.89L9.67-34.89 20.61-34.89 20.61-36.25Q20.61-37.84 22.32-37.84L22.32-37.84Q24.08-37.84 24.08-36.25L24.08-36.25 24.08-34.89 35.38-34.89Q38.67-34.89 38.67-31.68L38.67-31.68 38.67-29.88Q38.63-26.76 35.38-26.76L35.38-26.76 24.08-26.76 24.08-24.39 41.62-24.39Q43.2-24.39 43.2-22.9L43.2-22.9Q43.2-21.45 41.62-21.45L41.62-21.45 3.38-21.45Q1.8-21.45 1.8-22.9L1.8-22.9Q1.8-24.39 3.38-24.39L3.38-24.39ZM24.08-32.34L24.08-29.31 33.93-29.31Q35.07-29.31 35.11-30.45L35.11-30.45 35.11-31.2Q35.07-32.34 33.93-32.34L33.93-32.34 24.08-32.34ZM11.12-29.31L20.61-29.31 20.61-32.34 11.12-32.34Q9.98-32.3 9.93-31.2L9.93-31.2 9.93-30.45Q9.98-29.36 11.12-29.31L11.12-29.31ZM34.23-2.02L34.23-2.02 10.77-2.02Q6.15-1.85 6.46-5.67L6.46-5.67 6.46-15.78Q6.15-19.6 10.77-19.42L10.77-19.42 34.23-19.42Q38.85-19.6 38.54-15.78L38.54-15.78 38.54-5.67Q38.85-1.85 34.23-2.02ZM10.37-14.5L34.63-14.5 34.63-15.47Q34.58-16.83 33.27-16.88L33.27-16.88 11.73-16.88Q10.42-16.83 10.37-15.47L10.37-15.47 10.37-14.5ZM34.63-9.71L34.63-12.08 10.37-12.08 10.37-9.71 34.63-9.71ZM34.63-5.93L34.63-7.29 10.37-7.29 10.37-5.93Q10.42-4.61 11.73-4.57L11.73-4.57 33.27-4.57Q34.58-4.61 34.63-5.93L34.63-5.93ZM15.07-1.23L16.52-1.54Q18.33-1.54 18.33 0.04L18.33 0.04Q18.33 1.14 14.79 1.93 11.25 2.72 8.22 3.16L8.22 3.16 4.53 3.56 3.91 3.6Q2.11 3.6 2.11 1.8L2.11 1.8Q2.11 0.62 4.64 0.42 7.16 0.22 10.15-0.22L10.15-0.22 15.07-1.23ZM28.61-1.49L28.61-1.49 29.4-1.36Q34.28-0.13 40.65 0.35L40.65 0.35Q42.89 0.53 42.89 1.85L42.89 1.85Q42.89 3.6 41.09 3.6L41.09 3.6Q38.01 3.6 32.39 2.35 26.76 1.1 26.76 0.04L26.76 0.04Q26.76-1.49 28.61-1.49ZM62.49-27.16L62.49-27.16Q63.63-27.16 64.69-23.73L64.69-23.73Q67.1-15.86 67.1-13.32L67.1-13.32Q67.1-11.43 65.43-11.43L65.43-11.43Q64.38-11.43 63.94-12.39L63.94-12.39Q63.76-12.7 63.41-15.12L63.41-15.12Q62.67-20.08 61.17-24.74L61.17-24.74Q60.95-25.36 60.95-25.8L60.95-25.8Q60.95-27.16 62.49-27.16ZM75.59-27.47L75.59-27.47Q76.77-27.47 77.34-25.84 77.92-24.21 78.51-22.17 79.1-20.13 79.91-16.85 80.73-13.58 80.73-12.96L80.73-12.96Q80.73-11.25 79.01-11.25L79.01-11.25Q77.56-11.25 77.12-13.89L77.12-13.89Q76.07-19.95 74.44-24.7L74.44-24.7 74.09-26.1Q74.09-27.47 75.59-27.47ZM72.33-34.37L72.33-1.23Q72.33 1.05 70.49 1.05 68.64 1.05 68.64-1.23L68.64-1.23 68.64-34.37Q68.64-36.65 70.49-36.65 72.33-36.65 72.33-34.37L72.33-34.37ZM86.31-34.89L86.31 1.14Q86.31 3.47 84.42 3.47L84.42 3.47Q82.57 3.47 82.57 1.14L82.57 1.14 82.57-34.89Q82.57-37.22 84.42-37.22L84.42-37.22Q86.31-37.22 86.31-34.89L86.31-34.89ZM49.35 2.5L49.35 2.5Q47.42 2.5 47.42 0.48L47.42 0.48Q47.42-0.44 49.44-2.24L49.44-2.24Q53.61-5.98 54.71-10.85L54.71-10.85Q55.72-15.91 55.81-25.53L55.81-25.53 55.9-34.94Q55.9-37.22 57.74-37.22L57.74-37.22Q59.55-37.22 59.55-35.02L59.55-35.02 59.46-23.91Q59.24-14.9 58.25-9.91 57.26-4.92 54.16-1.21 51.06 2.5 49.35 2.5ZM50.89-28.13Q52.51-28.13 52.51-26.37L52.51-26.37 52.51-25.93 52.47-25Q52.47-17.89 50.93-13.54L50.93-13.54Q50.01-10.9 48.56-10.9L48.56-10.9Q46.8-10.9 46.8-12.61L46.8-12.61Q46.8-13.05 47.07-13.54L47.07-13.54Q49.13-17.8 49.22-25.8L49.22-25.8Q49.26-28.13 50.89-28.13ZM103.27-24.7L111.75-27.16 111.75-35.38Q111.75-37.79 113.69-37.79 115.62-37.79 115.62-35.38L115.62-35.38 115.62-28.3 125.16-31.03 126.04-31.11Q129.02-31.11 129.02-27.38L129.02-27.38 129.02-15.64Q129.02-9.05 120.89-9.05L120.89-9.05Q118.7-9.05 118.7-11.21L118.7-11.21Q118.7-13.1 121.42-13.18L121.42-13.18Q123.18-13.23 123.84-13.62L123.84-13.62Q125.07-14.41 125.07-16.79L125.07-16.79 125.07-25.49Q125.07-26.72 123.97-26.72L123.97-26.72 123.49-26.63 115.62-24.35 115.62-7.34Q115.62-4.92 113.69-4.92 111.75-4.92 111.75-7.34L111.75-7.34 111.75-23.25 103.27-20.79 103.27-4.92Q103.27-3.21 104.9-2.5L104.9-2.5Q106-2.02 113.73-2.02L113.73-2.02 123.09-2.07Q126.83-2.02 127.97-3.12L127.97-3.12Q128.63-3.96 128.94-6.46L128.94-6.46Q129.16-8.17 131-8.17L131-8.17Q133.2-8.17 133.2-6.11 133.2-4.04 132.43-1.85 131.66 0.35 129.13 1.12 126.61 1.89 114.74 1.89L114.74 1.89Q105.86 1.89 103.05 1.36L103.05 1.36Q99.36 0.66 99.36-4.31L99.36-4.31 99.36-19.64Q93.91-18.06 93.56-18.06L93.56-18.06Q91.8-18.06 91.8-19.95L91.8-19.95Q91.8-21.4 93.52-21.88L93.52-21.88 99.36-23.6 99.36-32.65Q99.36-35.07 101.34-35.07L101.34-35.07Q103.27-35.07 103.27-32.65L103.27-32.65 103.27-24.7ZM147-19.69L147-19.69 147 1.27Q147 3.6 145.11 3.6 143.22 3.6 143.22 1.27L143.22 1.27 143.22-15.6Q139.79-12.08 138.56-12.08L138.56-12.08Q136.76-12.08 136.76-14.15L136.76-14.15Q136.76-15.34 138.52-16.7L138.52-16.7Q143.39-20.48 147.35-26.32L147.35-26.32Q148.27-27.6 149.37-27.6L149.37-27.6Q151.44-27.6 151.44-25.8L151.44-25.8Q151.44-24.39 147-19.69ZM175.87-19.42L171.69-19.42 171.69-1.89Q172 3.6 166.68 3.25L166.68 3.25 162.91 3.25Q160.44 3.25 160.44 1.14L160.44 1.14Q160.44-0.92 162.91-0.92L162.91-0.92 165.63-0.92Q167.78-0.88 167.74-3.03L167.74-3.03 167.74-19.42 154.47-19.42Q152.18-19.42 152.18-21.36 152.18-23.29 154.47-23.29L154.47-23.29 175.87-23.29Q178.24-23.29 178.24-21.36 178.24-19.42 175.87-19.42L175.87-19.42ZM148.32-37.53L148.32-37.53Q150.34-37.53 150.34-35.6L150.34-35.6Q150.34-34.32 145.42-30.72 140.49-27.11 138.82-27.11L138.82-27.11Q137.11-27.11 137.11-29.27L137.11-29.27Q137.11-30.45 139.26-31.51L139.26-31.51Q142.69-33.35 146.34-36.47L146.34-36.47Q147.57-37.53 148.32-37.53ZM174.2-31.82L156.49-31.82Q154.34-31.82 154.34-33.75 154.34-35.68 156.49-35.68L156.49-35.68 174.2-35.68Q176.35-35.68 176.35-33.75 176.35-31.82 174.2-31.82L174.2-31.82Z" transform="translate(-1.7999999523162842, 37.84000015258789)"></path></g> <!----> <!----> <!----> <!----> <!----> <!----> <!----></g></g> <g data-gra="path-slogan" fill-rule="" class="tp-slogan iconsvg-slogansvg" fill="#333" transform="translate(37.124446868896484,47.439998626708984)"><!----> <!----> <g transform="scale(1, 1)"><g transform="scale(1)"><path d="M7.31-3.61L4.69-3.61L4.69-4.59L8.44-4.59L8.44 0L7.69 0L7.41-1.08Q6.42 0.09 4.59 0.14L4.59 0.14Q2.86 0.14 1.92-0.75L1.92-0.75Q0.52-2.06 0.56-4.36L0.56-4.36Q0.89-8.63 4.64-8.81L4.64-8.81Q7.83-8.63 8.30-6L8.30-6L7.17-6Q6.70-7.78 4.59-7.83L4.59-7.83Q1.92-7.64 1.78-4.31L1.78-4.31Q1.78-0.75 4.64-0.75L4.64-0.75Q5.67-0.75 6.42-1.31L6.42-1.31Q7.36-2.06 7.31-3.61L7.31-3.61ZM15.89-3.19L15.89-8.58L17.06-8.58L17.06-3.05Q16.92 0.05 13.55 0.14L13.55 0.14Q10.41 0.05 10.27-2.86L10.27-2.86L10.27-8.58L11.44-8.58L11.44-3.19Q11.48-0.84 13.59-0.80L13.59-0.80Q15.89-0.84 15.89-3.19L15.89-3.19ZM19.03-8.58L20.20-8.58L20.20 0L19.03 0L19.03-8.58ZM23.02-1.03L28.31-1.03L28.31 0L21.56 0L21.56-0.94L26.81-7.59L21.94-7.59L21.94-8.58L28.31-8.58L28.31-7.59L23.02-1.03ZM30.61-5.06L35.11-5.06L35.11-8.58L36.28-8.58L36.28 0L35.11 0L35.11-3.98L30.61-3.98L30.61 0L29.44 0L29.44-8.58L30.61-8.58L30.61-5.06ZM44.86-4.27L44.86-4.27Q44.67-7.64 41.86-7.83L41.86-7.83Q39-7.69 38.86-4.27L38.86-4.27Q39-0.94 41.86-0.80L41.86-0.80Q44.67-0.98 44.86-4.27ZM46.03-4.27L46.03-4.27Q45.75 0 41.86 0.14L41.86 0.14Q37.92 0 37.64-4.27L37.64-4.27Q37.88-8.72 41.86-8.81L41.86-8.81Q45.75-8.67 46.03-4.27ZM53.06-3.19L53.06-8.58L54.23-8.58L54.23-3.05Q54.09 0.05 50.72 0.14L50.72 0.14Q47.58 0.05 47.44-2.86L47.44-2.86L47.44-8.58L48.61-8.58L48.61-3.19Q48.66-0.84 50.77-0.80L50.77-0.80Q53.06-0.84 53.06-3.19L53.06-3.19ZM66.28-8.58L63.05-3.47L63.05 0L61.88 0L61.88-3.47L58.64-8.58L60-8.58L62.44-4.45L64.92-8.58L66.28-8.58ZM68.63-1.03L73.78-1.03L73.78 0L67.45 0L67.45-8.58L73.69-8.58L73.69-7.59L68.63-7.59L68.63-4.92L73.31-4.92L73.31-3.89L68.63-3.89L68.63-1.03ZM82.03-8.58L79.13-4.41L82.17 0L80.72 0L78.38-3.52L76.03 0L74.63 0L77.72-4.41L74.81-8.58L76.27-8.58L78.42-5.30L80.63-8.58L82.03-8.58ZM83.44-8.58L84.61-8.58L84.61 0L83.44 0L83.44-8.58ZM87.98-8.58L92.30-1.64L92.30-8.58L93.42-8.58L93.42 0L92.11 0L87.75-6.94L87.70-6.94L87.70 0L86.58 0L86.58-8.58L87.98-8.58ZM101.63-3.61L99-3.61L99-4.59L102.75-4.59L102.75 0L102 0L101.72-1.08Q100.73 0.09 98.91 0.14L98.91 0.14Q97.17 0.14 96.23-0.75L96.23-0.75Q94.83-2.06 94.88-4.36L94.88-4.36Q95.20-8.63 98.95-8.81L98.95-8.81Q102.14-8.63 102.61-6L102.61-6L101.48-6Q101.02-7.78 98.91-7.83L98.91-7.83Q96.23-7.64 96.09-4.31L96.09-4.31Q96.09-0.75 98.95-0.75L98.95-0.75Q99.98-0.75 100.73-1.31L100.73-1.31Q101.67-2.06 101.63-3.61L101.63-3.61Z" transform="translate(-0.5609879032258065, 8.8125)"></path></g></g></g></g></g><defs v-gra="od"></defs></svg>